ffmpeg version N-92722-gf22fcd4483 Copyright (c) 2000-2018 the FFmpeg developers
  built with gcc 8.2.1 (GCC) 20181201
  configuration: --enable-gpl --enable-version3 --enable-sdl2 --enable-fontconfig --enable-gnutls --enable-iconv --enable-libass --enable-libbluray --enable-libfreetype --enable-libmp3lame --enable-libopencore-amrnb --enable-libopencore-amrwb --enable-libopenjpeg --enable-libopus --enable-libshine --enable-libsnappy --enable-libsoxr --enable-libtheora --enable-libtwolame --enable-libvpx --enable-libwavpack --enable-libwebp --enable-libx264 --enable-libx265 --enable-libxml2 --enable-libzimg --enable-lzma --enable-zlib --enable-gmp --enable-libvidstab --enable-libvorbis --enable-libvo-amrwbenc --enable-libmysofa --enable-libspeex --enable-libxvid --enable-libaom --enable-libmfx --enable-amf --enable-ffnvcodec --enable-cuvid --enable-d3d11va --enable-nvenc --enable-nvdec --enable-dxva2 --enable-avisynth --enable-libopenmpt
  libavutil      56. 24.101 / 56. 24.101
  libavcodec     58. 42.102 / 58. 42.102
  libavformat    58. 24.101 / 58. 24.101
  libavdevice    58.  6.101 / 58.  6.101
  libavfilter     7. 46.101 /  7. 46.101
  libswscale      5.  4.100 /  5.  4.100
  libswresample   3.  4.100 /  3.  4.100
  libpostproc    55.  4.100 / 55.  4.100
Input #0, mov,mp4,m4a,3gp,3g2,mj2, from './src/video.mp4':
  Metadata:
    major_brand     : mp42
    minor_version   : 0
    compatible_brands: mp42mp41isomavc1
    creation_time   : 2020-10-30T10:03:49.000000Z
  Duration: 00:00:07.42, start: 0.000000, bitrate: 2420 kb/s
    Stream #0:0(und): Video: h264 (High) (avc1 / 0x31637661), yuv420p(tv, bt709), 1280x720, 2416 kb/s, 23.98 fps, 23.98 tbr, 24k tbn, 48k tbc (default)
    Metadata:
      creation_time   : 2020-10-30T10:03:49.000000Z
      handler_name    : L-SMASH Video Handler
      encoder         : AVC Coding
Stream mapping:
  Stream #0:0 -> #0:0 (h264 (native) -> mjpeg (native))
Press [q] to stop, [?] for help
[swscaler @ 000001aa89fd2200] deprecated pixel format used, make sure you did set range correctly
Output #0, image2pipe, to 'pipe:1':
  Metadata:
    major_brand     : mp42
    minor_version   : 0
    compatible_brands: mp42mp41isomavc1
    encoder         : Lavf58.24.101
    Stream #0:0(und): Video: mjpeg, yuvj420p(pc), 720x1280, q=2-31, 200 kb/s, 23.98 fps, 23.98 tbn, 23.98 tbc (default)
    Metadata:
      creation_time   : 2020-10-30T10:03:49.000000Z
      handler_name    : L-SMASH Video Handler
      encoder         : Lavc58.42.102 mjpeg
    Side data:
      cpb: bitrate max/min/avg: 0/0/200000 buffer size: 0 vbv_delay: -1
frame=   78 fps=0.0 q=24.8 size=    2448kB time=00:00:03.25 bitrate=6164.7kbits/s speed=6.47x    
frame=  166 fps=165 q=24.8 size=    4548kB time=00:00:06.92 bitrate=5381.0kbits/s speed=6.87x    
frame=  178 fps=165 q=24.8 Lsize=    4835kB time=00:00:07.42 bitrate=5334.6kbits/s speed= 6.9x    
video:4835kB audio:0kB subtitle:0kB other streams:0kB global headers:0kB muxing overhead: 0.000000%

